<?xml version="1.0" standalone="no"?>
 <!DOCTYPE svg PUBLIC "-//W3C//DTD SVG 1.1//EN" 
 "http://www.w3.org/Graphics/SVG/1.1/DTD/svg11.dtd"> 
<svg
  xmlns:svg="http://www.w3.org/2000/svg"
  xmlns="http://www.w3.org/2000/svg"
  xmlns:xlink="http://www.w3.org/1999/xlink"
  version="1.1"
  width="99.0346mm" height="65.5320mm" viewBox="0.0000 0.0000 99.0346 65.5320">
<title>SVG Image created as vik-playground-brd.svg date 2024/01/08 22:41:33 </title>
  <desc>Image generated by PCBNEW </desc>
<g style="fill:#000000; fill-opacity:1.0000;stroke:#000000; stroke-opacity:1.0000;
stroke-linecap:round; stroke-linejoin:round;"
 transform="translate(0 0) scale(1 1)">
</g>
<g style="fill:#000000; fill-opacity:0.0; 
stroke:#000000; stroke-width:0.0000; stroke-opacity:1; 
stroke-linecap:round; stroke-linejoin:round;">
</g>
<g style="fill:#000000; fill-opacity:0.0; 
stroke:#000000; stroke-width:0.0500; stroke-opacity:1; 
stroke-linecap:round; stroke-linejoin:round;">
<path d="M17.9150 1.1950
L17.9150 13.1950
" />
<path d="M17.9150 1.1950
L1.9150 1.1950
" />
<path d="M1.9150 13.1950
L17.9150 13.1950
" />
<path d="M1.9150 13.1950
L1.9150 1.1950
" />
<g >
</g>
<g >
</g>
<g >
</g>
<g >
</g>
<g >
</g>
<g >
</g>
<g >
</g>
<g >
</g>
<g >
</g>
<g >
</g>
<g >
</g>
<g >
</g>
<g >
</g>
<g >
</g>
<g >
</g>
<g >
</g>
<g >
</g>
<g >
</g>
<g >
</g>
<g >
</g>
<g >
</g>
<g >
</g>
<g >
</g>
<g >
</g>
<g >
</g>
<g >
</g>
<g >
</g>
<g >
</g>
<g >
</g>
<g >
</g>
<g >
</g>
<g >
</g>
<g >
</g>
<g >
</g>
<g >
</g>
<g >
</g>
<g >
</g>
<g >
</g>
<g >
</g>
<g >
</g>
<g >
</g>
<g >
</g>
<g >
</g>
</g>
<g style="fill:#000000; fill-opacity:0.0; 
stroke:#000000; stroke-width:0.0500; stroke-opacity:1; 
stroke-linecap:round; stroke-linejoin:round;">
</g>
<g style="fill:#000000; fill-opacity:0.0; 
stroke:#000000; stroke-width:0.1200; stroke-opacity:1; 
stroke-linecap:round; stroke-linejoin:round;">
<path d="M3.1970 60.3250
L0.6970 60.3250
" />
<path d="M3.1970 53.3250
L0.6970 53.3250
" />
<g >
</g>
<g >
</g>
<g >
</g>
<g >
</g>
<g >
</g>
<g >
</g>
<g >
</g>
<g >
</g>
<g >
</g>
<g >
</g>
<g >
</g>
<g >
</g>
<g >
</g>
<g >
</g>
<g >
</g>
<g >
</g>
<g >
</g>
<g >
</g>
<g >
</g>
<g >
</g>
<g >
</g>
<g >
</g>
<g >
</g>
<g >
</g>
<g >
</g>
<g >
</g>
<g >
</g>
<g >
</g>
<g >
</g>
<g >
</g>
<g >
</g>
<g >
</g>
<g >
</g>
<g >
</g>
<g >
</g>
<g >
</g>
<g >
</g>
<g >
</g>
<g >
</g>
<g >
</g>
<g >
</g>
<g >
</g>
<g >
</g>
</g>
<g style="fill:#000000; fill-opacity:0.0; 
stroke:#000000; stroke-width:0.1200; stroke-opacity:1; 
stroke-linecap:round; stroke-linejoin:round;">
<path d="M56.5250 16.4150
L42.5250 16.4150
" />
<path d="M56.5250 2.4150
L56.5250 16.4150
" />
<path d="M42.5250 16.4150
L42.5250 2.4150
" />
<path d="M42.5250 2.4150
L56.5250 2.4150
" />
<path d="M75.5250 16.4150
L61.5250 16.4150
" />
<path d="M75.5250 2.4150
L75.5250 16.4150
" />
<path d="M61.5250 16.4150
L61.5250 2.4150
" />
<path d="M61.5250 2.4150
L75.5250 2.4150
" />
<path d="M37.5250 16.4150
L23.5250 16.4150
" />
<path d="M37.5250 2.4150
L37.5250 16.4150
" />
<path d="M23.5250 16.4150
L23.5250 2.4150
" />
<path d="M23.5250 2.4150
L37.5250 2.4150
" />
<path d="M75.5250 35.4150
L61.5250 35.4150
" />
<path d="M75.5250 21.4150
L75.5250 35.4150
" />
<path d="M61.5250 35.4150
L61.5250 21.4150
" />
<path d="M61.5250 21.4150
L75.5250 21.4150
" />
<path d="M56.5250 35.4150
L42.5250 35.4150
" />
<path d="M56.5250 21.4150
L56.5250 35.4150
" />
<path d="M42.5250 35.4150
L42.5250 21.4150
" />
<path d="M42.5250 21.4150
L56.5250 21.4150
" />
<path d="M37.5250 35.4150
L23.5250 35.4150
" />
<path d="M37.5250 21.4150
L37.5250 35.4150
" />
<path d="M23.5250 35.4150
L23.5250 21.4150
" />
<path d="M23.5250 21.4150
L37.5250 21.4150
" />
<g >
</g>
<g >
</g>
<g >
</g>
<g >
</g>
<g >
</g>
<g >
</g>
<g >
</g>
<g >
</g>
<g >
</g>
<g >
</g>
<g >
</g>
<g >
</g>
<g >
</g>
<g >
</g>
<g >
</g>
<g >
</g>
<g >
</g>
<g >
</g>
<g >
</g>
<g >
</g>
<g >
</g>
<g >
</g>
<g >
</g>
<g >
</g>
<g >
</g>
<g >
</g>
<g >
</g>
<g >
</g>
<g >
</g>
<g >
</g>
<g >
</g>
<g >
</g>
<g >
</g>
<g >
</g>
<g >
</g>
<g >
</g>
<g >
</g>
<g >
</g>
<g >
</g>
<g >
</g>
<g >
</g>
<g >
</g>
<g >
</g>
</g>
<g style="fill:#000000; fill-opacity:0.0; 
stroke:#000000; stroke-width:0.1200; stroke-opacity:1; 
stroke-linecap:round; stroke-linejoin:round;">
</g>
<g style="fill:#000000; fill-opacity:0.0; 
stroke:#000000; stroke-width:0.0500; stroke-opacity:1; 
stroke-linecap:round; stroke-linejoin:round;">
<path d="M0.0250 2.5650
L0.0250 62.9850
" />
<path d="M0.0250 62.9850 A2.5400 2.5400 0.0 0 0 2.5650 65.5250" />
<path d="M96.4850 0.0250
L2.5650 0.0250
" />
<path d="M2.5650 65.5250
L96.4850 65.5250
" />
<path d="M96.4850 65.5250 A2.5400 2.5400 0.0 0 0 99.0250 62.9850" />
<path d="M99.0250 62.9850
L99.0250 2.5650
" />
<path d="M99.0250 2.5650 A2.5400 2.5400 0.0 0 0 96.4850 0.0250" />
<path d="M2.5650 0.0250 A2.5400 2.5400 0.0 0 0 0.0250 2.5650" />
<g >
</g>
<g >
</g>
<g >
</g>
<g >
</g>
<g >
</g>
<g >
</g>
<g >
</g>
<g >
</g>
<g >
</g>
<g >
</g>
<g >
</g>
<g >
</g>
<g >
</g>
<g >
</g>
<g >
</g>
<g >
</g>
<g >
</g>
<g >
</g>
<g >
</g>
<g >
</g>
<g >
</g>
<g >
</g>
<g >
</g>
<g >
</g>
<g >
</g>
<g >
</g>
<g >
</g>
<g >
</g>
<g >
</g>
<g >
</g>
<g >
</g>
<g >
</g>
<g >
</g>
<g >
</g>
<g >
</g>
<g >
</g>
<g >
</g>
<g >
</g>
<g >
</g>
<g >
</g>
<g >
</g>
<g >
</g>
<g >
</g>
</g> 
</svg>
