%TF.GenerationSoftware,KiCad,Pcbnew,9.0.4*%
%TF.CreationDate,2025-09-11T01:00:25+02:00*%
%TF.ProjectId,pmw3610_xxs,706d7733-3631-4305-9f78-78732e6b6963,rev?*%
%TF.SameCoordinates,Original*%
%TF.FileFunction,Copper,L1,Top*%
%TF.FilePolarity,Positive*%
%FSLAX46Y46*%
G04 Gerber Fmt 4.6, Leading zero omitted, Abs format (unit mm)*
G04 Created by KiCad (PCBNEW 9.0.4) date 2025-09-11 01:00:25*
%MOMM*%
%LPD*%
G01*
G04 APERTURE LIST*
G04 Aperture macros list*
%AMRoundRect*
0 Rectangle with rounded corners*
0 $1 Rounding radius*
0 $2 $3 $4 $5 $6 $7 $8 $9 X,Y pos of 4 corners*
0 Add a 4 corners polygon primitive as box body*
4,1,4,$2,$3,$4,$5,$6,$7,$8,$9,$2,$3,0*
0 Add four circle primitives for the rounded corners*
1,1,$1+$1,$2,$3*
1,1,$1+$1,$4,$5*
1,1,$1+$1,$6,$7*
1,1,$1+$1,$8,$9*
0 Add four rect primitives between the rounded corners*
20,1,$1+$1,$2,$3,$4,$5,0*
20,1,$1+$1,$4,$5,$6,$7,0*
20,1,$1+$1,$6,$7,$8,$9,0*
20,1,$1+$1,$8,$9,$2,$3,0*%
G04 Aperture macros list end*
%TA.AperFunction,SMDPad,CuDef*%
%ADD10R,1.800000X2.000000*%
%TD*%
%TA.AperFunction,SMDPad,CuDef*%
%ADD11R,0.400000X1.350000*%
%TD*%
%TA.AperFunction,ComponentPad*%
%ADD12RoundRect,0.187500X-0.437500X0.437500X-0.437500X-0.437500X0.437500X-0.437500X0.437500X0.437500X0*%
%TD*%
%TA.AperFunction,ComponentPad*%
%ADD13O,1.250000X1.250000*%
%TD*%
%TA.AperFunction,ViaPad*%
%ADD14C,0.600000*%
%TD*%
%TA.AperFunction,Conductor*%
%ADD15C,0.250000*%
%TD*%
%TA.AperFunction,Conductor*%
%ADD16C,0.200000*%
%TD*%
G04 APERTURE END LIST*
D10*
%TO.P,J2,*%
%TO.N,*%
X131762000Y-99298000D03*
X140462000Y-99298000D03*
D11*
%TO.P,J2,1,SCLK*%
%TO.N,SCLK*%
X133362000Y-100298000D03*
%TO.P,J2,2,MISO*%
%TO.N,SDIO*%
X133862000Y-98298000D03*
%TO.P,J2,3,SPI_CS*%
%TO.N,NCS*%
X134362000Y-100298000D03*
%TO.P,J2,4,GP_AD2*%
%TO.N,unconnected-(J2-GP_AD2-Pad4)*%
X134862000Y-98298000D03*
%TO.P,J2,5,MOSI*%
%TO.N,MOTION*%
X135362000Y-100298000D03*
%TO.P,J2,6,GP_AD1*%
%TO.N,unconnected-(J2-GP_AD1-Pad6)*%
X135862000Y-98298000D03*
%TO.P,J2,7,5V*%
%TO.N,unconnected-(J2-5V-Pad7)*%
X136362000Y-100298000D03*
%TO.P,J2,8,RGB_DO*%
%TO.N,unconnected-(J2-RGB_DO-Pad8)*%
X136862000Y-98298000D03*
%TO.P,J2,9,SCL*%
%TO.N,unconnected-(J2-SCL-Pad9)*%
X137362000Y-100298000D03*
%TO.P,J2,10,SDA*%
%TO.N,unconnected-(J2-SDA-Pad10)*%
X137862000Y-98298000D03*
%TO.P,J2,11,GND*%
%TO.N,GND*%
X138362000Y-100298000D03*
%TO.P,J2,12,3V3*%
%TO.N,VCC*%
X138862000Y-98298000D03*
%TD*%
D12*
%TO.P,U2,1,+VCSEL*%
%TO.N,Net-(U2-+VCSEL)*%
X130650000Y-81100000D03*
D13*
%TO.P,U2,2,SDIO*%
%TO.N,SDIO*%
X130650000Y-82880000D03*
%TO.P,U2,3,SCLK*%
%TO.N,SCLK*%
X130650000Y-84660000D03*
%TO.P,U2,4,NC*%
%TO.N,unconnected-(U2-NC-Pad4)*%
X130650000Y-86440000D03*
%TO.P,U2,5,NCS*%
%TO.N,NCS*%
X130650000Y-88220000D03*
%TO.P,U2,6,VDDIO*%
%TO.N,VCC*%
X130650000Y-90000000D03*
%TO.P,U2,7,NRESET*%
%TO.N,Net-(U2-NRESET)*%
X130650000Y-91780000D03*
%TO.P,U2,8,MOTION*%
%TO.N,MOTION*%
X130650000Y-93560000D03*
%TO.P,U2,9,VCP*%
%TO.N,Net-(U2-VCP)*%
X141350000Y-94450000D03*
%TO.P,U2,10,PASS_T*%
%TO.N,Net-(U2-+VCSEL)*%
X141350000Y-92670000D03*
%TO.P,U2,11,GND*%
%TO.N,GND*%
X141350000Y-90890000D03*
%TO.P,U2,12,CP*%
%TO.N,Net-(U2-CP)*%
X141350000Y-89110000D03*
%TO.P,U2,13,CN*%
%TO.N,Net-(U2-CN)*%
X141350000Y-87330000D03*
%TO.P,U2,14,VDD*%
%TO.N,+1V9*%
X141350000Y-85550000D03*
%TO.P,U2,15,XYLASER*%
%TO.N,Net-(U2--VCSEL)*%
X141350000Y-83770000D03*
%TO.P,U2,16,-VCSEL*%
X141350000Y-81990000D03*
%TD*%
D14*
%TO.N,VCC*%
X143764000Y-102499000D03*
X145132997Y-93849999D03*
X145227500Y-99568000D03*
X128165200Y-95839900D03*
X138948292Y-99305542D03*
%TO.N,GND*%
X137049672Y-101964328D03*
X139446000Y-101991000D03*
X126416900Y-91894700D03*
X128526052Y-98044000D03*
X142725100Y-96595900D03*
%TO.N,+1V9*%
X145933000Y-93726000D03*
X128524000Y-102870000D03*
X145735058Y-102047058D03*
%TO.N,Net-(U2-+VCSEL)*%
X143492800Y-93200000D03*
X133350000Y-101854000D03*
X127254000Y-101854000D03*
%TO.N,Net-(U2-CP)*%
X128424559Y-99844443D03*
X141882400Y-95840600D03*
X129882501Y-98386501D03*
X135611657Y-97125541D03*
%TO.N,Net-(U2-CN)*%
X144507997Y-96571903D03*
%TO.N,Net-(U2-VCP)*%
X130556000Y-95504000D03*
%TO.N,SCLK*%
X129248700Y-83567000D03*
%TO.N,NCS*%
X130307517Y-102499001D03*
X128016000Y-96653531D03*
X132080000Y-102499000D03*
X134620000Y-101854000D03*
%TD*%
D15*
%TO.N,VCC*%
X145227500Y-93944502D02*
X145227500Y-99568000D01*
X145227500Y-101221000D02*
X143949500Y-102499000D01*
X128165300Y-92484700D02*
X128165300Y-95839900D01*
X128165300Y-95839900D02*
X128165200Y-95839900D01*
X145132997Y-93849999D02*
X145227500Y-93944502D01*
X130650000Y-90000000D02*
X128165300Y-92484700D01*
X143949500Y-102499000D02*
X143764000Y-102499000D01*
X138862000Y-99219250D02*
X138862000Y-98298000D01*
X145227500Y-99568000D02*
X145227500Y-101221000D01*
X138948292Y-99305542D02*
X138862000Y-99219250D01*
%TO.N,GND*%
X127633604Y-98044000D02*
X126416900Y-96827296D01*
X137193344Y-102108000D02*
X139329000Y-102108000D01*
X138362000Y-100906000D02*
X138362000Y-100298000D01*
X126416900Y-96827296D02*
X126416900Y-91894700D01*
X142725100Y-92265100D02*
X142725100Y-96595900D01*
X137303672Y-101964328D02*
X138362000Y-100906000D01*
X128526052Y-98044000D02*
X127633604Y-98044000D01*
X139329000Y-102108000D02*
X139446000Y-101991000D01*
X137049672Y-101964328D02*
X137193344Y-102108000D01*
X137049672Y-101964328D02*
X137303672Y-101964328D01*
X141350000Y-90890000D02*
X142725100Y-92265100D01*
%TO.N,+1V9*%
X146050000Y-90250000D02*
X141350000Y-85550000D01*
X146050000Y-93609000D02*
X146050000Y-90250000D01*
X145963100Y-93756100D02*
X145963100Y-101819016D01*
X145933000Y-93726000D02*
X145963100Y-93756100D01*
X128524000Y-102870000D02*
X128778000Y-103124000D01*
X144658116Y-103124000D02*
X145735058Y-102047058D01*
X145963100Y-101819016D02*
X145735058Y-102047058D01*
X145933000Y-93726000D02*
X146050000Y-93609000D01*
X128778000Y-103124000D02*
X144658116Y-103124000D01*
%TO.N,Net-(U2-+VCSEL)*%
X143492800Y-99261308D02*
X140080108Y-102674000D01*
X127254000Y-101854000D02*
X133350000Y-101854000D01*
X143492800Y-93200000D02*
X143492800Y-99261308D01*
X140080108Y-102674000D02*
X134170000Y-102674000D01*
X134170000Y-102674000D02*
X133350000Y-101854000D01*
D16*
%TO.N,Net-(U2-CP)*%
X140695000Y-97028000D02*
X141882400Y-95840600D01*
X135611657Y-97125541D02*
X135709198Y-97028000D01*
X135709198Y-97028000D02*
X140695000Y-97028000D01*
X128424559Y-99844443D02*
X129882501Y-98386501D01*
D15*
%TO.N,Net-(U2-CN)*%
X144507997Y-96571903D02*
X144507997Y-90487997D01*
X144507997Y-90487997D02*
X141350000Y-87330000D01*
%TO.N,Net-(U2-VCP)*%
X131484000Y-96432000D02*
X140371900Y-96432000D01*
X130556000Y-95504000D02*
X131484000Y-96432000D01*
X140371900Y-96432000D02*
X141350000Y-95453900D01*
X141350000Y-95453900D02*
X141350000Y-94450000D01*
D16*
%TO.N,Net-(U2--VCSEL)*%
X141350000Y-81990000D02*
X141350000Y-83770000D01*
%TO.N,MOTION*%
X134362000Y-97278000D02*
X134362000Y-99273000D01*
X135362000Y-99802000D02*
X135362000Y-100298000D01*
X134382500Y-99293500D02*
X134853500Y-99293500D01*
X129877000Y-96857000D02*
X133941000Y-96857000D01*
X133941000Y-96857000D02*
X134362000Y-97278000D01*
X134362000Y-99273000D02*
X134382500Y-99293500D01*
X130650000Y-93560000D02*
X129540000Y-94670000D01*
X129540000Y-96520000D02*
X129877000Y-96857000D01*
X129540000Y-94670000D02*
X129540000Y-96520000D01*
X134853500Y-99293500D02*
X135362000Y-99802000D01*
D15*
%TO.N,SCLK*%
X128534232Y-100838000D02*
X125757100Y-98060868D01*
X125757100Y-87058600D02*
X129248700Y-83567000D01*
X125757100Y-98060868D02*
X125757100Y-87058600D01*
X133362000Y-100298000D02*
X132822000Y-100838000D01*
X132822000Y-100838000D02*
X128534232Y-100838000D01*
%TO.N,SDIO*%
X133862000Y-97823000D02*
X133862000Y-98298000D01*
X127504531Y-97278531D02*
X128778000Y-97278531D01*
X128781469Y-97282000D02*
X133321000Y-97282000D01*
X126919300Y-96693300D02*
X127504531Y-97278531D01*
X127132600Y-86582700D02*
X127132600Y-92467500D01*
X130650000Y-82880000D02*
X130650000Y-83065300D01*
X127132600Y-92467500D02*
X126919300Y-92680800D01*
X126919300Y-92680800D02*
X126919300Y-96693300D01*
X130650000Y-83065300D02*
X127132600Y-86582700D01*
X128778000Y-97278531D02*
X128781469Y-97282000D01*
X133321000Y-97282000D02*
X133862000Y-97823000D01*
%TO.N,NCS*%
X127540200Y-92735600D02*
X127540200Y-96298200D01*
X134620000Y-100556000D02*
X134362000Y-100298000D01*
X134620000Y-101854000D02*
X134620000Y-100556000D01*
X127895531Y-96653531D02*
X128016000Y-96653531D01*
X130650000Y-88220000D02*
X127584300Y-91285700D01*
X127762000Y-96520000D02*
X127895531Y-96653531D01*
X130307517Y-102499001D02*
X130307518Y-102499000D01*
X127540200Y-96298200D02*
X127762000Y-96520000D01*
X130307518Y-102499000D02*
X132080000Y-102499000D01*
X127584300Y-92691500D02*
X127540200Y-92735600D01*
X127584300Y-91285700D02*
X127584300Y-92691500D01*
%TD*%
M02*
