%TF.GenerationSoftware,KiCad,Pcbnew,9.0.4*%
%TF.CreationDate,2025-09-11T01:00:25+02:00*%
%TF.ProjectId,pmw3610_xxs,706d7733-3631-4305-9f78-78732e6b6963,rev?*%
%TF.SameCoordinates,Original*%
%TF.FileFunction,Legend,Bot*%
%TF.FilePolarity,Positive*%
%FSLAX46Y46*%
G04 Gerber Fmt 4.6, Leading zero omitted, Abs format (unit mm)*
G04 Created by KiCad (PCBNEW 9.0.4) date 2025-09-11 01:00:25*
%MOMM*%
%LPD*%
G01*
G04 APERTURE LIST*
G04 Aperture macros list*
%AMRoundRect*
0 Rectangle with rounded corners*
0 $1 Rounding radius*
0 $2 $3 $4 $5 $6 $7 $8 $9 X,Y pos of 4 corners*
0 Add a 4 corners polygon primitive as box body*
4,1,4,$2,$3,$4,$5,$6,$7,$8,$9,$2,$3,0*
0 Add four circle primitives for the rounded corners*
1,1,$1+$1,$2,$3*
1,1,$1+$1,$4,$5*
1,1,$1+$1,$6,$7*
1,1,$1+$1,$8,$9*
0 Add four rect primitives between the rounded corners*
20,1,$1+$1,$2,$3,$4,$5,0*
20,1,$1+$1,$4,$5,$6,$7,0*
20,1,$1+$1,$6,$7,$8,$9,0*
20,1,$1+$1,$8,$9,$2,$3,0*%
G04 Aperture macros list end*
%ADD10C,0.100000*%
%ADD11C,0.062500*%
%ADD12C,0.150000*%
%ADD13C,0.120000*%
%ADD14RoundRect,0.187500X-0.437500X0.437500X-0.437500X-0.437500X0.437500X-0.437500X0.437500X0.437500X0*%
%ADD15O,1.250000X1.250000*%
%ADD16RoundRect,0.225000X0.225000X0.250000X-0.225000X0.250000X-0.225000X-0.250000X0.225000X-0.250000X0*%
%ADD17RoundRect,0.150000X0.587500X0.150000X-0.587500X0.150000X-0.587500X-0.150000X0.587500X-0.150000X0*%
%ADD18RoundRect,0.200000X0.200000X0.275000X-0.200000X0.275000X-0.200000X-0.275000X0.200000X-0.275000X0*%
G04 APERTURE END LIST*
D10*
X139202380Y-96700276D02*
X139202380Y-97200276D01*
X139202380Y-96724085D02*
X139154761Y-96700276D01*
X139154761Y-96700276D02*
X139059523Y-96700276D01*
X139059523Y-96700276D02*
X139011904Y-96724085D01*
X139011904Y-96724085D02*
X138988094Y-96747895D01*
X138988094Y-96747895D02*
X138964285Y-96795514D01*
X138964285Y-96795514D02*
X138964285Y-96938371D01*
X138964285Y-96938371D02*
X138988094Y-96985990D01*
X138988094Y-96985990D02*
X139011904Y-97009800D01*
X139011904Y-97009800D02*
X139059523Y-97033609D01*
X139059523Y-97033609D02*
X139154761Y-97033609D01*
X139154761Y-97033609D02*
X139202380Y-97009800D01*
X138749999Y-97033609D02*
X138749999Y-96700276D01*
X138749999Y-96747895D02*
X138726189Y-96724085D01*
X138726189Y-96724085D02*
X138678570Y-96700276D01*
X138678570Y-96700276D02*
X138607142Y-96700276D01*
X138607142Y-96700276D02*
X138559523Y-96724085D01*
X138559523Y-96724085D02*
X138535713Y-96771704D01*
X138535713Y-96771704D02*
X138535713Y-97033609D01*
X138535713Y-96771704D02*
X138511904Y-96724085D01*
X138511904Y-96724085D02*
X138464285Y-96700276D01*
X138464285Y-96700276D02*
X138392856Y-96700276D01*
X138392856Y-96700276D02*
X138345237Y-96724085D01*
X138345237Y-96724085D02*
X138321427Y-96771704D01*
X138321427Y-96771704D02*
X138321427Y-97033609D01*
X138130951Y-96700276D02*
X138035713Y-97033609D01*
X138035713Y-97033609D02*
X137940475Y-96795514D01*
X137940475Y-96795514D02*
X137845237Y-97033609D01*
X137845237Y-97033609D02*
X137749999Y-96700276D01*
X137607141Y-96533609D02*
X137297617Y-96533609D01*
X137297617Y-96533609D02*
X137464284Y-96724085D01*
X137464284Y-96724085D02*
X137392855Y-96724085D01*
X137392855Y-96724085D02*
X137345236Y-96747895D01*
X137345236Y-96747895D02*
X137321427Y-96771704D01*
X137321427Y-96771704D02*
X137297617Y-96819323D01*
X137297617Y-96819323D02*
X137297617Y-96938371D01*
X137297617Y-96938371D02*
X137321427Y-96985990D01*
X137321427Y-96985990D02*
X137345236Y-97009800D01*
X137345236Y-97009800D02*
X137392855Y-97033609D01*
X137392855Y-97033609D02*
X137535712Y-97033609D01*
X137535712Y-97033609D02*
X137583331Y-97009800D01*
X137583331Y-97009800D02*
X137607141Y-96985990D01*
X136869046Y-96533609D02*
X136964284Y-96533609D01*
X136964284Y-96533609D02*
X137011903Y-96557419D01*
X137011903Y-96557419D02*
X137035713Y-96581228D01*
X137035713Y-96581228D02*
X137083332Y-96652657D01*
X137083332Y-96652657D02*
X137107141Y-96747895D01*
X137107141Y-96747895D02*
X137107141Y-96938371D01*
X137107141Y-96938371D02*
X137083332Y-96985990D01*
X137083332Y-96985990D02*
X137059522Y-97009800D01*
X137059522Y-97009800D02*
X137011903Y-97033609D01*
X137011903Y-97033609D02*
X136916665Y-97033609D01*
X136916665Y-97033609D02*
X136869046Y-97009800D01*
X136869046Y-97009800D02*
X136845237Y-96985990D01*
X136845237Y-96985990D02*
X136821427Y-96938371D01*
X136821427Y-96938371D02*
X136821427Y-96819323D01*
X136821427Y-96819323D02*
X136845237Y-96771704D01*
X136845237Y-96771704D02*
X136869046Y-96747895D01*
X136869046Y-96747895D02*
X136916665Y-96724085D01*
X136916665Y-96724085D02*
X137011903Y-96724085D01*
X137011903Y-96724085D02*
X137059522Y-96747895D01*
X137059522Y-96747895D02*
X137083332Y-96771704D01*
X137083332Y-96771704D02*
X137107141Y-96819323D01*
X136345237Y-97033609D02*
X136630951Y-97033609D01*
X136488094Y-97033609D02*
X136488094Y-96533609D01*
X136488094Y-96533609D02*
X136535713Y-96605038D01*
X136535713Y-96605038D02*
X136583332Y-96652657D01*
X136583332Y-96652657D02*
X136630951Y-96676466D01*
X136035714Y-96533609D02*
X135988095Y-96533609D01*
X135988095Y-96533609D02*
X135940476Y-96557419D01*
X135940476Y-96557419D02*
X135916666Y-96581228D01*
X135916666Y-96581228D02*
X135892857Y-96628847D01*
X135892857Y-96628847D02*
X135869047Y-96724085D01*
X135869047Y-96724085D02*
X135869047Y-96843133D01*
X135869047Y-96843133D02*
X135892857Y-96938371D01*
X135892857Y-96938371D02*
X135916666Y-96985990D01*
X135916666Y-96985990D02*
X135940476Y-97009800D01*
X135940476Y-97009800D02*
X135988095Y-97033609D01*
X135988095Y-97033609D02*
X136035714Y-97033609D01*
X136035714Y-97033609D02*
X136083333Y-97009800D01*
X136083333Y-97009800D02*
X136107142Y-96985990D01*
X136107142Y-96985990D02*
X136130952Y-96938371D01*
X136130952Y-96938371D02*
X136154761Y-96843133D01*
X136154761Y-96843133D02*
X136154761Y-96724085D01*
X136154761Y-96724085D02*
X136130952Y-96628847D01*
X136130952Y-96628847D02*
X136107142Y-96581228D01*
X136107142Y-96581228D02*
X136083333Y-96557419D01*
X136083333Y-96557419D02*
X136035714Y-96533609D01*
X135273810Y-97033609D02*
X135273810Y-96700276D01*
X135273810Y-96747895D02*
X135250000Y-96724085D01*
X135250000Y-96724085D02*
X135202381Y-96700276D01*
X135202381Y-96700276D02*
X135130953Y-96700276D01*
X135130953Y-96700276D02*
X135083334Y-96724085D01*
X135083334Y-96724085D02*
X135059524Y-96771704D01*
X135059524Y-96771704D02*
X135059524Y-97033609D01*
X135059524Y-96771704D02*
X135035715Y-96724085D01*
X135035715Y-96724085D02*
X134988096Y-96700276D01*
X134988096Y-96700276D02*
X134916667Y-96700276D01*
X134916667Y-96700276D02*
X134869048Y-96724085D01*
X134869048Y-96724085D02*
X134845238Y-96771704D01*
X134845238Y-96771704D02*
X134845238Y-97033609D01*
X134535714Y-97033609D02*
X134583333Y-97009800D01*
X134583333Y-97009800D02*
X134607143Y-96985990D01*
X134607143Y-96985990D02*
X134630952Y-96938371D01*
X134630952Y-96938371D02*
X134630952Y-96795514D01*
X134630952Y-96795514D02*
X134607143Y-96747895D01*
X134607143Y-96747895D02*
X134583333Y-96724085D01*
X134583333Y-96724085D02*
X134535714Y-96700276D01*
X134535714Y-96700276D02*
X134464286Y-96700276D01*
X134464286Y-96700276D02*
X134416667Y-96724085D01*
X134416667Y-96724085D02*
X134392857Y-96747895D01*
X134392857Y-96747895D02*
X134369048Y-96795514D01*
X134369048Y-96795514D02*
X134369048Y-96938371D01*
X134369048Y-96938371D02*
X134392857Y-96985990D01*
X134392857Y-96985990D02*
X134416667Y-97009800D01*
X134416667Y-97009800D02*
X134464286Y-97033609D01*
X134464286Y-97033609D02*
X134535714Y-97033609D01*
X133940476Y-97033609D02*
X133940476Y-96533609D01*
X133940476Y-97009800D02*
X133988095Y-97033609D01*
X133988095Y-97033609D02*
X134083333Y-97033609D01*
X134083333Y-97033609D02*
X134130952Y-97009800D01*
X134130952Y-97009800D02*
X134154762Y-96985990D01*
X134154762Y-96985990D02*
X134178571Y-96938371D01*
X134178571Y-96938371D02*
X134178571Y-96795514D01*
X134178571Y-96795514D02*
X134154762Y-96747895D01*
X134154762Y-96747895D02*
X134130952Y-96724085D01*
X134130952Y-96724085D02*
X134083333Y-96700276D01*
X134083333Y-96700276D02*
X133988095Y-96700276D01*
X133988095Y-96700276D02*
X133940476Y-96724085D01*
X133488095Y-96700276D02*
X133488095Y-97033609D01*
X133702381Y-96700276D02*
X133702381Y-96962180D01*
X133702381Y-96962180D02*
X133678571Y-97009800D01*
X133678571Y-97009800D02*
X133630952Y-97033609D01*
X133630952Y-97033609D02*
X133559524Y-97033609D01*
X133559524Y-97033609D02*
X133511905Y-97009800D01*
X133511905Y-97009800D02*
X133488095Y-96985990D01*
X133178571Y-97033609D02*
X133226190Y-97009800D01*
X133226190Y-97009800D02*
X133250000Y-96962180D01*
X133250000Y-96962180D02*
X133250000Y-96533609D01*
X132797619Y-97009800D02*
X132845238Y-97033609D01*
X132845238Y-97033609D02*
X132940476Y-97033609D01*
X132940476Y-97033609D02*
X132988095Y-97009800D01*
X132988095Y-97009800D02*
X133011904Y-96962180D01*
X133011904Y-96962180D02*
X133011904Y-96771704D01*
X133011904Y-96771704D02*
X132988095Y-96724085D01*
X132988095Y-96724085D02*
X132940476Y-96700276D01*
X132940476Y-96700276D02*
X132845238Y-96700276D01*
X132845238Y-96700276D02*
X132797619Y-96724085D01*
X132797619Y-96724085D02*
X132773809Y-96771704D01*
X132773809Y-96771704D02*
X132773809Y-96819323D01*
X132773809Y-96819323D02*
X133011904Y-96866942D01*
D11*
X140545333Y-99750440D02*
X140569142Y-99774250D01*
X140569142Y-99774250D02*
X140640571Y-99798059D01*
X140640571Y-99798059D02*
X140688190Y-99798059D01*
X140688190Y-99798059D02*
X140759618Y-99774250D01*
X140759618Y-99774250D02*
X140807237Y-99726630D01*
X140807237Y-99726630D02*
X140831047Y-99679011D01*
X140831047Y-99679011D02*
X140854856Y-99583773D01*
X140854856Y-99583773D02*
X140854856Y-99512345D01*
X140854856Y-99512345D02*
X140831047Y-99417107D01*
X140831047Y-99417107D02*
X140807237Y-99369488D01*
X140807237Y-99369488D02*
X140759618Y-99321869D01*
X140759618Y-99321869D02*
X140688190Y-99298059D01*
X140688190Y-99298059D02*
X140640571Y-99298059D01*
X140640571Y-99298059D02*
X140569142Y-99321869D01*
X140569142Y-99321869D02*
X140545333Y-99345678D01*
X140354856Y-99345678D02*
X140331047Y-99321869D01*
X140331047Y-99321869D02*
X140283428Y-99298059D01*
X140283428Y-99298059D02*
X140164380Y-99298059D01*
X140164380Y-99298059D02*
X140116761Y-99321869D01*
X140116761Y-99321869D02*
X140092952Y-99345678D01*
X140092952Y-99345678D02*
X140069142Y-99393297D01*
X140069142Y-99393297D02*
X140069142Y-99440916D01*
X140069142Y-99440916D02*
X140092952Y-99512345D01*
X140092952Y-99512345D02*
X140378666Y-99798059D01*
X140378666Y-99798059D02*
X140069142Y-99798059D01*
X127908333Y-83750440D02*
X127932142Y-83774250D01*
X127932142Y-83774250D02*
X128003571Y-83798059D01*
X128003571Y-83798059D02*
X128051190Y-83798059D01*
X128051190Y-83798059D02*
X128122618Y-83774250D01*
X128122618Y-83774250D02*
X128170237Y-83726630D01*
X128170237Y-83726630D02*
X128194047Y-83679011D01*
X128194047Y-83679011D02*
X128217856Y-83583773D01*
X128217856Y-83583773D02*
X128217856Y-83512345D01*
X128217856Y-83512345D02*
X128194047Y-83417107D01*
X128194047Y-83417107D02*
X128170237Y-83369488D01*
X128170237Y-83369488D02*
X128122618Y-83321869D01*
X128122618Y-83321869D02*
X128051190Y-83298059D01*
X128051190Y-83298059D02*
X128003571Y-83298059D01*
X128003571Y-83298059D02*
X127932142Y-83321869D01*
X127932142Y-83321869D02*
X127908333Y-83345678D01*
X127741666Y-83298059D02*
X127408333Y-83298059D01*
X127408333Y-83298059D02*
X127622618Y-83798059D01*
X129623333Y-99842440D02*
X129647142Y-99866250D01*
X129647142Y-99866250D02*
X129718571Y-99890059D01*
X129718571Y-99890059D02*
X129766190Y-99890059D01*
X129766190Y-99890059D02*
X129837618Y-99866250D01*
X129837618Y-99866250D02*
X129885237Y-99818630D01*
X129885237Y-99818630D02*
X129909047Y-99771011D01*
X129909047Y-99771011D02*
X129932856Y-99675773D01*
X129932856Y-99675773D02*
X129932856Y-99604345D01*
X129932856Y-99604345D02*
X129909047Y-99509107D01*
X129909047Y-99509107D02*
X129885237Y-99461488D01*
X129885237Y-99461488D02*
X129837618Y-99413869D01*
X129837618Y-99413869D02*
X129766190Y-99390059D01*
X129766190Y-99390059D02*
X129718571Y-99390059D01*
X129718571Y-99390059D02*
X129647142Y-99413869D01*
X129647142Y-99413869D02*
X129623333Y-99437678D01*
X129170952Y-99390059D02*
X129409047Y-99390059D01*
X129409047Y-99390059D02*
X129432856Y-99628154D01*
X129432856Y-99628154D02*
X129409047Y-99604345D01*
X129409047Y-99604345D02*
X129361428Y-99580535D01*
X129361428Y-99580535D02*
X129242380Y-99580535D01*
X129242380Y-99580535D02*
X129194761Y-99604345D01*
X129194761Y-99604345D02*
X129170952Y-99628154D01*
X129170952Y-99628154D02*
X129147142Y-99675773D01*
X129147142Y-99675773D02*
X129147142Y-99794821D01*
X129147142Y-99794821D02*
X129170952Y-99842440D01*
X129170952Y-99842440D02*
X129194761Y-99866250D01*
X129194761Y-99866250D02*
X129242380Y-99890059D01*
X129242380Y-99890059D02*
X129361428Y-99890059D01*
X129361428Y-99890059D02*
X129409047Y-99866250D01*
X129409047Y-99866250D02*
X129432856Y-99842440D01*
X143860333Y-99750440D02*
X143884142Y-99774250D01*
X143884142Y-99774250D02*
X143955571Y-99798059D01*
X143955571Y-99798059D02*
X144003190Y-99798059D01*
X144003190Y-99798059D02*
X144074618Y-99774250D01*
X144074618Y-99774250D02*
X144122237Y-99726630D01*
X144122237Y-99726630D02*
X144146047Y-99679011D01*
X144146047Y-99679011D02*
X144169856Y-99583773D01*
X144169856Y-99583773D02*
X144169856Y-99512345D01*
X144169856Y-99512345D02*
X144146047Y-99417107D01*
X144146047Y-99417107D02*
X144122237Y-99369488D01*
X144122237Y-99369488D02*
X144074618Y-99321869D01*
X144074618Y-99321869D02*
X144003190Y-99298059D01*
X144003190Y-99298059D02*
X143955571Y-99298059D01*
X143955571Y-99298059D02*
X143884142Y-99321869D01*
X143884142Y-99321869D02*
X143860333Y-99345678D01*
X143384142Y-99798059D02*
X143669856Y-99798059D01*
X143526999Y-99798059D02*
X143526999Y-99298059D01*
X143526999Y-99298059D02*
X143574618Y-99369488D01*
X143574618Y-99369488D02*
X143622237Y-99417107D01*
X143622237Y-99417107D02*
X143669856Y-99440916D01*
X127908333Y-89750440D02*
X127932142Y-89774250D01*
X127932142Y-89774250D02*
X128003571Y-89798059D01*
X128003571Y-89798059D02*
X128051190Y-89798059D01*
X128051190Y-89798059D02*
X128122618Y-89774250D01*
X128122618Y-89774250D02*
X128170237Y-89726630D01*
X128170237Y-89726630D02*
X128194047Y-89679011D01*
X128194047Y-89679011D02*
X128217856Y-89583773D01*
X128217856Y-89583773D02*
X128217856Y-89512345D01*
X128217856Y-89512345D02*
X128194047Y-89417107D01*
X128194047Y-89417107D02*
X128170237Y-89369488D01*
X128170237Y-89369488D02*
X128122618Y-89321869D01*
X128122618Y-89321869D02*
X128051190Y-89298059D01*
X128051190Y-89298059D02*
X128003571Y-89298059D01*
X128003571Y-89298059D02*
X127932142Y-89321869D01*
X127932142Y-89321869D02*
X127908333Y-89345678D01*
X127670237Y-89798059D02*
X127574999Y-89798059D01*
X127574999Y-89798059D02*
X127527380Y-89774250D01*
X127527380Y-89774250D02*
X127503571Y-89750440D01*
X127503571Y-89750440D02*
X127455952Y-89679011D01*
X127455952Y-89679011D02*
X127432142Y-89583773D01*
X127432142Y-89583773D02*
X127432142Y-89393297D01*
X127432142Y-89393297D02*
X127455952Y-89345678D01*
X127455952Y-89345678D02*
X127479761Y-89321869D01*
X127479761Y-89321869D02*
X127527380Y-89298059D01*
X127527380Y-89298059D02*
X127622618Y-89298059D01*
X127622618Y-89298059D02*
X127670237Y-89321869D01*
X127670237Y-89321869D02*
X127694047Y-89345678D01*
X127694047Y-89345678D02*
X127717856Y-89393297D01*
X127717856Y-89393297D02*
X127717856Y-89512345D01*
X127717856Y-89512345D02*
X127694047Y-89559964D01*
X127694047Y-89559964D02*
X127670237Y-89583773D01*
X127670237Y-89583773D02*
X127622618Y-89607583D01*
X127622618Y-89607583D02*
X127527380Y-89607583D01*
X127527380Y-89607583D02*
X127479761Y-89583773D01*
X127479761Y-89583773D02*
X127455952Y-89559964D01*
X127455952Y-89559964D02*
X127432142Y-89512345D01*
D12*
X144761904Y-91054819D02*
X144761904Y-91864342D01*
X144761904Y-91864342D02*
X144714285Y-91959580D01*
X144714285Y-91959580D02*
X144666666Y-92007200D01*
X144666666Y-92007200D02*
X144571428Y-92054819D01*
X144571428Y-92054819D02*
X144380952Y-92054819D01*
X144380952Y-92054819D02*
X144285714Y-92007200D01*
X144285714Y-92007200D02*
X144238095Y-91959580D01*
X144238095Y-91959580D02*
X144190476Y-91864342D01*
X144190476Y-91864342D02*
X144190476Y-91054819D01*
X143190476Y-92054819D02*
X143761904Y-92054819D01*
X143476190Y-92054819D02*
X143476190Y-91054819D01*
X143476190Y-91054819D02*
X143571428Y-91197676D01*
X143571428Y-91197676D02*
X143666666Y-91292914D01*
X143666666Y-91292914D02*
X143761904Y-91340533D01*
D11*
X127908333Y-86750440D02*
X127932142Y-86774250D01*
X127932142Y-86774250D02*
X128003571Y-86798059D01*
X128003571Y-86798059D02*
X128051190Y-86798059D01*
X128051190Y-86798059D02*
X128122618Y-86774250D01*
X128122618Y-86774250D02*
X128170237Y-86726630D01*
X128170237Y-86726630D02*
X128194047Y-86679011D01*
X128194047Y-86679011D02*
X128217856Y-86583773D01*
X128217856Y-86583773D02*
X128217856Y-86512345D01*
X128217856Y-86512345D02*
X128194047Y-86417107D01*
X128194047Y-86417107D02*
X128170237Y-86369488D01*
X128170237Y-86369488D02*
X128122618Y-86321869D01*
X128122618Y-86321869D02*
X128051190Y-86298059D01*
X128051190Y-86298059D02*
X128003571Y-86298059D01*
X128003571Y-86298059D02*
X127932142Y-86321869D01*
X127932142Y-86321869D02*
X127908333Y-86345678D01*
X127622618Y-86512345D02*
X127670237Y-86488535D01*
X127670237Y-86488535D02*
X127694047Y-86464726D01*
X127694047Y-86464726D02*
X127717856Y-86417107D01*
X127717856Y-86417107D02*
X127717856Y-86393297D01*
X127717856Y-86393297D02*
X127694047Y-86345678D01*
X127694047Y-86345678D02*
X127670237Y-86321869D01*
X127670237Y-86321869D02*
X127622618Y-86298059D01*
X127622618Y-86298059D02*
X127527380Y-86298059D01*
X127527380Y-86298059D02*
X127479761Y-86321869D01*
X127479761Y-86321869D02*
X127455952Y-86345678D01*
X127455952Y-86345678D02*
X127432142Y-86393297D01*
X127432142Y-86393297D02*
X127432142Y-86417107D01*
X127432142Y-86417107D02*
X127455952Y-86464726D01*
X127455952Y-86464726D02*
X127479761Y-86488535D01*
X127479761Y-86488535D02*
X127527380Y-86512345D01*
X127527380Y-86512345D02*
X127622618Y-86512345D01*
X127622618Y-86512345D02*
X127670237Y-86536154D01*
X127670237Y-86536154D02*
X127694047Y-86559964D01*
X127694047Y-86559964D02*
X127717856Y-86607583D01*
X127717856Y-86607583D02*
X127717856Y-86702821D01*
X127717856Y-86702821D02*
X127694047Y-86750440D01*
X127694047Y-86750440D02*
X127670237Y-86774250D01*
X127670237Y-86774250D02*
X127622618Y-86798059D01*
X127622618Y-86798059D02*
X127527380Y-86798059D01*
X127527380Y-86798059D02*
X127479761Y-86774250D01*
X127479761Y-86774250D02*
X127455952Y-86750440D01*
X127455952Y-86750440D02*
X127432142Y-86702821D01*
X127432142Y-86702821D02*
X127432142Y-86607583D01*
X127432142Y-86607583D02*
X127455952Y-86559964D01*
X127455952Y-86559964D02*
X127479761Y-86536154D01*
X127479761Y-86536154D02*
X127527380Y-86512345D01*
X127908333Y-80750440D02*
X127932142Y-80774250D01*
X127932142Y-80774250D02*
X128003571Y-80798059D01*
X128003571Y-80798059D02*
X128051190Y-80798059D01*
X128051190Y-80798059D02*
X128122618Y-80774250D01*
X128122618Y-80774250D02*
X128170237Y-80726630D01*
X128170237Y-80726630D02*
X128194047Y-80679011D01*
X128194047Y-80679011D02*
X128217856Y-80583773D01*
X128217856Y-80583773D02*
X128217856Y-80512345D01*
X128217856Y-80512345D02*
X128194047Y-80417107D01*
X128194047Y-80417107D02*
X128170237Y-80369488D01*
X128170237Y-80369488D02*
X128122618Y-80321869D01*
X128122618Y-80321869D02*
X128051190Y-80298059D01*
X128051190Y-80298059D02*
X128003571Y-80298059D01*
X128003571Y-80298059D02*
X127932142Y-80321869D01*
X127932142Y-80321869D02*
X127908333Y-80345678D01*
X127479761Y-80298059D02*
X127574999Y-80298059D01*
X127574999Y-80298059D02*
X127622618Y-80321869D01*
X127622618Y-80321869D02*
X127646428Y-80345678D01*
X127646428Y-80345678D02*
X127694047Y-80417107D01*
X127694047Y-80417107D02*
X127717856Y-80512345D01*
X127717856Y-80512345D02*
X127717856Y-80702821D01*
X127717856Y-80702821D02*
X127694047Y-80750440D01*
X127694047Y-80750440D02*
X127670237Y-80774250D01*
X127670237Y-80774250D02*
X127622618Y-80798059D01*
X127622618Y-80798059D02*
X127527380Y-80798059D01*
X127527380Y-80798059D02*
X127479761Y-80774250D01*
X127479761Y-80774250D02*
X127455952Y-80750440D01*
X127455952Y-80750440D02*
X127432142Y-80702821D01*
X127432142Y-80702821D02*
X127432142Y-80583773D01*
X127432142Y-80583773D02*
X127455952Y-80536154D01*
X127455952Y-80536154D02*
X127479761Y-80512345D01*
X127479761Y-80512345D02*
X127527380Y-80488535D01*
X127527380Y-80488535D02*
X127622618Y-80488535D01*
X127622618Y-80488535D02*
X127670237Y-80512345D01*
X127670237Y-80512345D02*
X127694047Y-80536154D01*
X127694047Y-80536154D02*
X127717856Y-80583773D01*
X133179333Y-99750440D02*
X133203142Y-99774250D01*
X133203142Y-99774250D02*
X133274571Y-99798059D01*
X133274571Y-99798059D02*
X133322190Y-99798059D01*
X133322190Y-99798059D02*
X133393618Y-99774250D01*
X133393618Y-99774250D02*
X133441237Y-99726630D01*
X133441237Y-99726630D02*
X133465047Y-99679011D01*
X133465047Y-99679011D02*
X133488856Y-99583773D01*
X133488856Y-99583773D02*
X133488856Y-99512345D01*
X133488856Y-99512345D02*
X133465047Y-99417107D01*
X133465047Y-99417107D02*
X133441237Y-99369488D01*
X133441237Y-99369488D02*
X133393618Y-99321869D01*
X133393618Y-99321869D02*
X133322190Y-99298059D01*
X133322190Y-99298059D02*
X133274571Y-99298059D01*
X133274571Y-99298059D02*
X133203142Y-99321869D01*
X133203142Y-99321869D02*
X133179333Y-99345678D01*
X132750761Y-99464726D02*
X132750761Y-99798059D01*
X132869809Y-99274250D02*
X132988856Y-99631392D01*
X132988856Y-99631392D02*
X132679333Y-99631392D01*
X136748333Y-99750440D02*
X136772142Y-99774250D01*
X136772142Y-99774250D02*
X136843571Y-99798059D01*
X136843571Y-99798059D02*
X136891190Y-99798059D01*
X136891190Y-99798059D02*
X136962618Y-99774250D01*
X136962618Y-99774250D02*
X137010237Y-99726630D01*
X137010237Y-99726630D02*
X137034047Y-99679011D01*
X137034047Y-99679011D02*
X137057856Y-99583773D01*
X137057856Y-99583773D02*
X137057856Y-99512345D01*
X137057856Y-99512345D02*
X137034047Y-99417107D01*
X137034047Y-99417107D02*
X137010237Y-99369488D01*
X137010237Y-99369488D02*
X136962618Y-99321869D01*
X136962618Y-99321869D02*
X136891190Y-99298059D01*
X136891190Y-99298059D02*
X136843571Y-99298059D01*
X136843571Y-99298059D02*
X136772142Y-99321869D01*
X136772142Y-99321869D02*
X136748333Y-99345678D01*
X136581666Y-99298059D02*
X136272142Y-99298059D01*
X136272142Y-99298059D02*
X136438809Y-99488535D01*
X136438809Y-99488535D02*
X136367380Y-99488535D01*
X136367380Y-99488535D02*
X136319761Y-99512345D01*
X136319761Y-99512345D02*
X136295952Y-99536154D01*
X136295952Y-99536154D02*
X136272142Y-99583773D01*
X136272142Y-99583773D02*
X136272142Y-99702821D01*
X136272142Y-99702821D02*
X136295952Y-99750440D01*
X136295952Y-99750440D02*
X136319761Y-99774250D01*
X136319761Y-99774250D02*
X136367380Y-99798059D01*
X136367380Y-99798059D02*
X136510237Y-99798059D01*
X136510237Y-99798059D02*
X136557856Y-99774250D01*
X136557856Y-99774250D02*
X136581666Y-99750440D01*
X127908333Y-92798059D02*
X128074999Y-92559964D01*
X128194047Y-92798059D02*
X128194047Y-92298059D01*
X128194047Y-92298059D02*
X128003571Y-92298059D01*
X128003571Y-92298059D02*
X127955952Y-92321869D01*
X127955952Y-92321869D02*
X127932142Y-92345678D01*
X127932142Y-92345678D02*
X127908333Y-92393297D01*
X127908333Y-92393297D02*
X127908333Y-92464726D01*
X127908333Y-92464726D02*
X127932142Y-92512345D01*
X127932142Y-92512345D02*
X127955952Y-92536154D01*
X127955952Y-92536154D02*
X128003571Y-92559964D01*
X128003571Y-92559964D02*
X128194047Y-92559964D01*
X127432142Y-92798059D02*
X127717856Y-92798059D01*
X127574999Y-92798059D02*
X127574999Y-92298059D01*
X127574999Y-92298059D02*
X127622618Y-92369488D01*
X127622618Y-92369488D02*
X127670237Y-92417107D01*
X127670237Y-92417107D02*
X127717856Y-92440916D01*
D13*
%TO.C,C2*%
X140321420Y-100490000D02*
X140602580Y-100490000D01*
X140321420Y-101510000D02*
X140602580Y-101510000D01*
%TO.C,C7*%
X127684420Y-84490000D02*
X127965580Y-84490000D01*
X127684420Y-85510000D02*
X127965580Y-85510000D01*
%TO.C,C5*%
X129399420Y-100582000D02*
X129680580Y-100582000D01*
X129399420Y-101602000D02*
X129680580Y-101602000D01*
%TO.C,C1*%
X143636420Y-100490000D02*
X143917580Y-100490000D01*
X143636420Y-101510000D02*
X143917580Y-101510000D01*
%TO.C,C9*%
X127684420Y-90490000D02*
X127965580Y-90490000D01*
X127684420Y-91510000D02*
X127965580Y-91510000D01*
%TO.C,U1*%
X143350000Y-92440000D02*
X144000000Y-92440000D01*
X143350000Y-95560000D02*
X144000000Y-95560000D01*
X144650000Y-92440000D02*
X144000000Y-92440000D01*
X144650000Y-95560000D02*
X144000000Y-95560000D01*
X145162500Y-92490000D02*
X144922500Y-92160000D01*
X145402500Y-92160000D01*
X145162500Y-92490000D01*
G36*
X145162500Y-92490000D02*
G01*
X144922500Y-92160000D01*
X145402500Y-92160000D01*
X145162500Y-92490000D01*
G37*
%TO.C,C8*%
X127684420Y-87490000D02*
X127965580Y-87490000D01*
X127684420Y-88510000D02*
X127965580Y-88510000D01*
%TO.C,C6*%
X127684420Y-81490000D02*
X127965580Y-81490000D01*
X127684420Y-82510000D02*
X127965580Y-82510000D01*
%TO.C,C4*%
X132955420Y-100490000D02*
X133236580Y-100490000D01*
X132955420Y-101510000D02*
X133236580Y-101510000D01*
%TO.C,C3*%
X136524420Y-100490000D02*
X136805580Y-100490000D01*
X136524420Y-101510000D02*
X136805580Y-101510000D01*
%TO.C,R1*%
X127587742Y-93477500D02*
X128062258Y-93477500D01*
X127587742Y-94522500D02*
X128062258Y-94522500D01*
%TD*%
%LPC*%
D14*
%TO.C,U2*%
X130650000Y-81100000D03*
D15*
X130650000Y-82880000D03*
X130650000Y-84660000D03*
X130650000Y-86440000D03*
X130650000Y-88220000D03*
X130650000Y-90000000D03*
X130650000Y-91780000D03*
X130650000Y-93560000D03*
X141350000Y-94450000D03*
X141350000Y-92670000D03*
X141350000Y-90890000D03*
X141350000Y-89110000D03*
X141350000Y-87330000D03*
X141350000Y-85550000D03*
X141350000Y-83770000D03*
X141350000Y-81990000D03*
%TD*%
D16*
%TO.C,C2*%
X141237000Y-101000000D03*
X139687000Y-101000000D03*
%TD*%
%TO.C,C7*%
X128600000Y-85000000D03*
X127050000Y-85000000D03*
%TD*%
%TO.C,C5*%
X130315000Y-101092000D03*
X128765000Y-101092000D03*
%TD*%
%TO.C,C1*%
X144552000Y-101000000D03*
X143002000Y-101000000D03*
%TD*%
%TO.C,C9*%
X128600000Y-91000000D03*
X127050000Y-91000000D03*
%TD*%
D17*
%TO.C,U1*%
X144937500Y-93050000D03*
X144937500Y-94950000D03*
X143062500Y-94000000D03*
%TD*%
D16*
%TO.C,C8*%
X128600000Y-88000000D03*
X127050000Y-88000000D03*
%TD*%
%TO.C,C6*%
X128600000Y-82000000D03*
X127050000Y-82000000D03*
%TD*%
%TO.C,C4*%
X133871000Y-101000000D03*
X132321000Y-101000000D03*
%TD*%
%TO.C,C3*%
X137440000Y-101000000D03*
X135890000Y-101000000D03*
%TD*%
D18*
%TO.C,R1*%
X128650000Y-94000000D03*
X127000000Y-94000000D03*
%TD*%
%LPD*%
M02*
