%TF.GenerationSoftware,KiCad,Pcbnew,9.0.4*%
%TF.CreationDate,2025-09-11T01:00:25+02:00*%
%TF.ProjectId,pmw3610_xxs,706d7733-3631-4305-9f78-78732e6b6963,rev?*%
%TF.SameCoordinates,Original*%
%TF.FileFunction,Legend,Top*%
%TF.FilePolarity,Positive*%
%FSLAX46Y46*%
G04 Gerber Fmt 4.6, Leading zero omitted, Abs format (unit mm)*
G04 Created by KiCad (PCBNEW 9.0.4) date 2025-09-11 01:00:25*
%MOMM*%
%LPD*%
G01*
G04 APERTURE LIST*
G04 Aperture macros list*
%AMRoundRect*
0 Rectangle with rounded corners*
0 $1 Rounding radius*
0 $2 $3 $4 $5 $6 $7 $8 $9 X,Y pos of 4 corners*
0 Add a 4 corners polygon primitive as box body*
4,1,4,$2,$3,$4,$5,$6,$7,$8,$9,$2,$3,0*
0 Add four circle primitives for the rounded corners*
1,1,$1+$1,$2,$3*
1,1,$1+$1,$4,$5*
1,1,$1+$1,$6,$7*
1,1,$1+$1,$8,$9*
0 Add four rect primitives between the rounded corners*
20,1,$1+$1,$2,$3,$4,$5,0*
20,1,$1+$1,$4,$5,$6,$7,0*
20,1,$1+$1,$6,$7,$8,$9,0*
20,1,$1+$1,$8,$9,$2,$3,0*%
G04 Aperture macros list end*
%ADD10C,0.150000*%
%ADD11C,0.120000*%
%ADD12C,0.254000*%
%ADD13R,1.800000X2.000000*%
%ADD14R,0.400000X1.350000*%
%ADD15RoundRect,0.187500X-0.437500X0.437500X-0.437500X-0.437500X0.437500X-0.437500X0.437500X0.437500X0*%
%ADD16O,1.250000X1.250000*%
G04 APERTURE END LIST*
D10*
X139437826Y-96468414D02*
X139902112Y-96468414D01*
X139902112Y-96468414D02*
X139652112Y-96754128D01*
X139652112Y-96754128D02*
X139759255Y-96754128D01*
X139759255Y-96754128D02*
X139830684Y-96789842D01*
X139830684Y-96789842D02*
X139866398Y-96825557D01*
X139866398Y-96825557D02*
X139902112Y-96896985D01*
X139902112Y-96896985D02*
X139902112Y-97075557D01*
X139902112Y-97075557D02*
X139866398Y-97146985D01*
X139866398Y-97146985D02*
X139830684Y-97182700D01*
X139830684Y-97182700D02*
X139759255Y-97218414D01*
X139759255Y-97218414D02*
X139544969Y-97218414D01*
X139544969Y-97218414D02*
X139473541Y-97182700D01*
X139473541Y-97182700D02*
X139437826Y-97146985D01*
X140152112Y-96718414D02*
X140330684Y-97218414D01*
X140330684Y-97218414D02*
X140509255Y-96718414D01*
X140723541Y-96468414D02*
X141187827Y-96468414D01*
X141187827Y-96468414D02*
X140937827Y-96754128D01*
X140937827Y-96754128D02*
X141044970Y-96754128D01*
X141044970Y-96754128D02*
X141116399Y-96789842D01*
X141116399Y-96789842D02*
X141152113Y-96825557D01*
X141152113Y-96825557D02*
X141187827Y-96896985D01*
X141187827Y-96896985D02*
X141187827Y-97075557D01*
X141187827Y-97075557D02*
X141152113Y-97146985D01*
X141152113Y-97146985D02*
X141116399Y-97182700D01*
X141116399Y-97182700D02*
X141044970Y-97218414D01*
X141044970Y-97218414D02*
X140830684Y-97218414D01*
X140830684Y-97218414D02*
X140759256Y-97182700D01*
X140759256Y-97182700D02*
X140723541Y-97146985D01*
G36*
X138327746Y-97591819D02*
G01*
X133670400Y-97591819D01*
X133670400Y-96415199D01*
X133781511Y-96415199D01*
X133784771Y-96429536D01*
X134118104Y-97429536D01*
X134124098Y-97442961D01*
X134127608Y-97447008D01*
X134130005Y-97451802D01*
X134137113Y-97457967D01*
X134143272Y-97465068D01*
X134148061Y-97467462D01*
X134152112Y-97470976D01*
X134161037Y-97473950D01*
X134169445Y-97478155D01*
X134174789Y-97478534D01*
X134179875Y-97480230D01*
X134189255Y-97479563D01*
X134198635Y-97480230D01*
X134203720Y-97478534D01*
X134209065Y-97478155D01*
X134217475Y-97473949D01*
X134226397Y-97470976D01*
X134230444Y-97467465D01*
X134235238Y-97465069D01*
X134241401Y-97457963D01*
X134248505Y-97451802D01*
X134250900Y-97447010D01*
X134254412Y-97442962D01*
X134260406Y-97429536D01*
X134593739Y-96429536D01*
X134596999Y-96415200D01*
X134596332Y-96405819D01*
X134780922Y-96405819D01*
X134780922Y-97405819D01*
X134782363Y-97420451D01*
X134793562Y-97447487D01*
X134814254Y-97468179D01*
X134841290Y-97479378D01*
X134870554Y-97479378D01*
X134897590Y-97468179D01*
X134918282Y-97447487D01*
X134929481Y-97420451D01*
X134930922Y-97405819D01*
X134930922Y-96405819D01*
X135257112Y-96405819D01*
X135257112Y-97405819D01*
X135258553Y-97420451D01*
X135269752Y-97447487D01*
X135290444Y-97468179D01*
X135317480Y-97479378D01*
X135346744Y-97479378D01*
X135373780Y-97468179D01*
X135394472Y-97447487D01*
X135405671Y-97420451D01*
X135407112Y-97405819D01*
X135407112Y-97008313D01*
X135466854Y-96948570D01*
X135843540Y-97450819D01*
X135853472Y-97461660D01*
X135878653Y-97476570D01*
X135907622Y-97480708D01*
X135935970Y-97473446D01*
X135959381Y-97455887D01*
X135974290Y-97430706D01*
X135978429Y-97401738D01*
X135971167Y-97373389D01*
X135963540Y-97360819D01*
X135573997Y-96841427D01*
X135956573Y-96458852D01*
X135965900Y-96447487D01*
X135977099Y-96420451D01*
X135977099Y-96405819D01*
X137019017Y-96405819D01*
X137019017Y-97405819D01*
X137020458Y-97420451D01*
X137031657Y-97447487D01*
X137052349Y-97468179D01*
X137079385Y-97479378D01*
X137108649Y-97479378D01*
X137135685Y-97468179D01*
X137156377Y-97447487D01*
X137167576Y-97420451D01*
X137169017Y-97405819D01*
X137169017Y-96405819D01*
X137495207Y-96405819D01*
X137495207Y-97405819D01*
X137496648Y-97420451D01*
X137507847Y-97447487D01*
X137528539Y-97468179D01*
X137555575Y-97479378D01*
X137584839Y-97479378D01*
X137611875Y-97468179D01*
X137632567Y-97447487D01*
X137643766Y-97420451D01*
X137645207Y-97405819D01*
X137645207Y-96688235D01*
X138076517Y-97443030D01*
X138078706Y-97446114D01*
X138079275Y-97447487D01*
X138080672Y-97448884D01*
X138085027Y-97455019D01*
X138092915Y-97461127D01*
X138099967Y-97468179D01*
X138104385Y-97470009D01*
X138108165Y-97472936D01*
X138117786Y-97475560D01*
X138127003Y-97479378D01*
X138131784Y-97479378D01*
X138136396Y-97480636D01*
X138146293Y-97479378D01*
X138156267Y-97479378D01*
X138160682Y-97477548D01*
X138165426Y-97476946D01*
X138174090Y-97471995D01*
X138183303Y-97468179D01*
X138186681Y-97464800D01*
X138190835Y-97462427D01*
X138196944Y-97454537D01*
X138203995Y-97447487D01*
X138205824Y-97443070D01*
X138208752Y-97439290D01*
X138211376Y-97429666D01*
X138215194Y-97420451D01*
X138215930Y-97412968D01*
X138216452Y-97411058D01*
X138216264Y-97409582D01*
X138216635Y-97405819D01*
X138216635Y-96405819D01*
X138215194Y-96391187D01*
X138203995Y-96364151D01*
X138183303Y-96343459D01*
X138156267Y-96332260D01*
X138127003Y-96332260D01*
X138099967Y-96343459D01*
X138079275Y-96364151D01*
X138068076Y-96391187D01*
X138066635Y-96405819D01*
X138066635Y-97123402D01*
X137635325Y-96368609D01*
X137633136Y-96365525D01*
X137632567Y-96364151D01*
X137631167Y-96362751D01*
X137626815Y-96356619D01*
X137618925Y-96350509D01*
X137611875Y-96343459D01*
X137607458Y-96341629D01*
X137603678Y-96338702D01*
X137594054Y-96336077D01*
X137584839Y-96332260D01*
X137580058Y-96332260D01*
X137575446Y-96331002D01*
X137565549Y-96332260D01*
X137555575Y-96332260D01*
X137551159Y-96334089D01*
X137546416Y-96334692D01*
X137537751Y-96339642D01*
X137528539Y-96343459D01*
X137525160Y-96346837D01*
X137521007Y-96349211D01*
X137514897Y-96357100D01*
X137507847Y-96364151D01*
X137506017Y-96368567D01*
X137503090Y-96372348D01*
X137500465Y-96381971D01*
X137496648Y-96391187D01*
X137495911Y-96398669D01*
X137495390Y-96400580D01*
X137495577Y-96402055D01*
X137495207Y-96405819D01*
X137169017Y-96405819D01*
X137167576Y-96391187D01*
X137156377Y-96364151D01*
X137135685Y-96343459D01*
X137108649Y-96332260D01*
X137079385Y-96332260D01*
X137052349Y-96343459D01*
X137031657Y-96364151D01*
X137020458Y-96391187D01*
X137019017Y-96405819D01*
X135977099Y-96405819D01*
X135977099Y-96391188D01*
X135965900Y-96364151D01*
X135945208Y-96343459D01*
X135918171Y-96332260D01*
X135888908Y-96332260D01*
X135861872Y-96343459D01*
X135850507Y-96352786D01*
X135407112Y-96796181D01*
X135407112Y-96405819D01*
X135405671Y-96391187D01*
X135394472Y-96364151D01*
X135373780Y-96343459D01*
X135346744Y-96332260D01*
X135317480Y-96332260D01*
X135290444Y-96343459D01*
X135269752Y-96364151D01*
X135258553Y-96391187D01*
X135257112Y-96405819D01*
X134930922Y-96405819D01*
X134929481Y-96391187D01*
X134918282Y-96364151D01*
X134897590Y-96343459D01*
X134870554Y-96332260D01*
X134841290Y-96332260D01*
X134814254Y-96343459D01*
X134793562Y-96364151D01*
X134782363Y-96391187D01*
X134780922Y-96405819D01*
X134596332Y-96405819D01*
X134594924Y-96386010D01*
X134581838Y-96359836D01*
X134559730Y-96340662D01*
X134531968Y-96331408D01*
X134502778Y-96333483D01*
X134476605Y-96346570D01*
X134457431Y-96368677D01*
X134451437Y-96382102D01*
X134189255Y-97168648D01*
X133927073Y-96382102D01*
X133921079Y-96368676D01*
X133901905Y-96346569D01*
X133875732Y-96333483D01*
X133846542Y-96331408D01*
X133818779Y-96340662D01*
X133796672Y-96359836D01*
X133783586Y-96386009D01*
X133781511Y-96415199D01*
X133670400Y-96415199D01*
X133670400Y-96219891D01*
X138327746Y-96219891D01*
X138327746Y-97591819D01*
G37*
D11*
%TO.C,J2*%
X130312000Y-97798000D02*
X132862000Y-97798000D01*
X130312000Y-100798000D02*
X130312000Y-97798000D01*
X130312000Y-100798000D02*
X132862000Y-100798000D01*
X132862000Y-99148000D02*
X132862000Y-100798000D01*
X132862000Y-99148000D02*
X139362000Y-99148000D01*
X139362000Y-99148000D02*
X139362000Y-100798000D01*
X141912000Y-97798000D02*
X139362000Y-97798000D01*
X141912000Y-100798000D02*
X139362000Y-100798000D01*
X141912000Y-100798000D02*
X141912000Y-97798000D01*
D12*
X133466000Y-101448000D02*
G75*
G02*
X133212000Y-101448000I-127000J0D01*
G01*
X133212000Y-101448000D02*
G75*
G02*
X133466000Y-101448000I127000J0D01*
G01*
%TD*%
%LPC*%
D13*
%TO.C,J2*%
X131762000Y-99298000D03*
X140462000Y-99298000D03*
D14*
X133362000Y-100298000D03*
X133862000Y-98298000D03*
X134362000Y-100298000D03*
X134862000Y-98298000D03*
X135362000Y-100298000D03*
X135862000Y-98298000D03*
X136362000Y-100298000D03*
X136862000Y-98298000D03*
X137362000Y-100298000D03*
X137862000Y-98298000D03*
X138362000Y-100298000D03*
X138862000Y-98298000D03*
%TD*%
D15*
%TO.C,U2*%
X130650000Y-81100000D03*
D16*
X130650000Y-82880000D03*
X130650000Y-84660000D03*
X130650000Y-86440000D03*
X130650000Y-88220000D03*
X130650000Y-90000000D03*
X130650000Y-91780000D03*
X130650000Y-93560000D03*
X141350000Y-94450000D03*
X141350000Y-92670000D03*
X141350000Y-90890000D03*
X141350000Y-89110000D03*
X141350000Y-87330000D03*
X141350000Y-85550000D03*
X141350000Y-83770000D03*
X141350000Y-81990000D03*
%TD*%
%LPD*%
M02*
