M48
; DRILL file {KiCad 9.0.4} date 2025-09-11T01:00:25+0200
; FORMAT={-:-/ absolute / inch / decimal}
; #@! TF.CreationDate,2025-09-11T01:00:25+02:00
; #@! TF.GenerationSoftware,Kicad,Pcbnew,9.0.4
; #@! TF.FileFunction,Plated,1,2,PTH
FMAT,2
INCH
; #@! TA.AperFunction,Plated,PTH,ViaDrill
T1C0.0118
; #@! TA.AperFunction,Plated,PTH,ComponentDrill
T2C0.0295
%
G90
G05
T1
X4.977Y-3.6179
X5.01Y-4.01
X5.04Y-3.8053
X5.0459Y-3.7732
X5.0561Y-3.9309
X5.06Y-4.05
X5.0601Y-3.86
X5.0885Y-3.29
X5.1135Y-3.8735
X5.1302Y-4.0354
X5.14Y-3.76
X5.2Y-4.0354
X5.25Y-4.01
X5.3Y-4.01
X5.339Y-3.8238
X5.3957Y-4.0143
X5.4704Y-3.9097
X5.49Y-4.0154
X5.5859Y-3.7733
X5.6191Y-3.803
X5.6493Y-3.6693
X5.66Y-4.0354
X5.6893Y-3.802
X5.7139Y-3.6949
X5.7176Y-3.92
X5.7376Y-4.0176
X5.7454Y-3.69
T2
X5.1437Y-3.1929
X5.1437Y-3.263
X5.1437Y-3.3331
X5.1437Y-3.4031
X5.1437Y-3.4732
X5.1437Y-3.5433
X5.1437Y-3.6134
X5.1437Y-3.6835
X5.565Y-3.228
X5.565Y-3.298
X5.565Y-3.3681
X5.565Y-3.4382
X5.565Y-3.5083
X5.565Y-3.5783
X5.565Y-3.6484
X5.565Y-3.7185
M30
